<svg xmlns="http://www.w3.org/2000/svg" xmlns:xlink="http://www.w3.org/1999/xlink" width="500" zoomAndPan="magnify" viewBox="0 0 375 374.999991" height="500" preserveAspectRatio="xMidYMid meet" version="1.0"><defs><g/><clipPath id="cf1418f371"><rect x="0" width="315" y="0" height="375"/></clipPath><clipPath id="0f1a3b5904"><rect x="0" width="216" y="0" height="134"/></clipPath><clipPath id="d302e4474d"><rect x="0" width="179" y="0" height="30"/></clipPath></defs><g transform="matrix(1, 0, 0, 1, 34, 0)"><g clip-path="url(#cf1418f371)"><g fill="#1e1e1e" fill-opacity="1"><g transform="translate(10.122302, 256.193943)"><g><path d="M -2.125 -163.890625 C -2.125 -168.992188 -0.210938 -173.457031 3.609375 -177.28125 C 7.441406 -181.113281 11.914062 -183.03125 17.03125 -183.03125 L 61.71875 -183.03125 C 65.976562 -183.03125 70.09375 -181.332031 74.0625 -177.9375 C 77.75 -179.351562 81.507812 -180.554688 85.34375 -181.546875 C 89.175781 -182.535156 93.222656 -183.03125 97.484375 -183.03125 L 113.234375 -183.03125 C 118.617188 -183.03125 124.078125 -182.25 129.609375 -180.6875 C 135.148438 -179.132812 140.191406 -177.222656 144.734375 -174.953125 C 153.804688 -180.335938 164.304688 -183.03125 176.234375 -183.03125 L 211.140625 -183.03125 C 222.765625 -183.03125 233.398438 -180.265625 243.046875 -174.734375 C 252.703125 -169.203125 260.367188 -161.894531 266.046875 -152.8125 L 277.53125 -141.75 C 283.5 -135.789062 288.179688 -128.90625 291.578125 -121.09375 C 294.984375 -113.289062 296.6875 -104.851562 296.6875 -95.78125 L 296.6875 14.90625 C 296.6875 19.4375 294.910156 23.546875 291.359375 27.234375 C 287.816406 30.929688 283.632812 32.78125 278.8125 32.78125 L 234.125 32.78125 C 229.582031 32.78125 225.46875 30.9375 221.78125 27.25 L 205.59375 11.5 C 202.476562 10.070312 200.207031 8.367188 198.78125 6.390625 L 198.78125 14.90625 C 198.78125 19.4375 197.003906 23.546875 193.453125 27.234375 C 189.910156 30.929688 185.726562 32.78125 180.90625 32.78125 L 136.21875 32.78125 C 131.675781 32.78125 127.5625 30.9375 123.875 27.25 L 107.6875 11.5 C 104.570312 10.070312 102.304688 8.367188 100.890625 6.390625 L 100.890625 14.90625 C 100.890625 19.4375 99.113281 23.546875 95.5625 27.234375 C 92.019531 30.929688 87.832031 32.78125 83 32.78125 L 38.3125 32.78125 C 33.769531 32.78125 29.65625 30.9375 25.96875 27.25 L 9.796875 11.0625 C 6.390625 9.644531 3.550781 7.304688 1.28125 4.046875 C -0.988281 0.785156 -2.125 -2.691406 -2.125 -6.390625 Z M -2.125 -163.890625 "/></g></g></g></g></g><g transform="matrix(1, 0, 0, 1, 63, 67)"><g clip-path="url(#0f1a3b5904)"><g fill="#e4e2dd" fill-opacity="1"><g transform="translate(0.25139, 104.467078)"><g><path d="M 6.328125 0 L 6.328125 -53.78125 L 20.03125 -53.78125 L 21.09375 -49.03125 L 21.625 -49.03125 C 22.675781 -50.507812 24.359375 -51.84375 26.671875 -53.03125 C 28.992188 -54.226562 31.5625 -54.828125 34.375 -54.828125 C 37.894531 -54.828125 40.9375 -54.054688 43.5 -52.515625 C 46.0625 -50.972656 47.90625 -49.285156 49.03125 -47.453125 L 49.5625 -47.453125 C 50.894531 -49.421875 52.984375 -51.140625 55.828125 -52.609375 C 58.679688 -54.085938 61.972656 -54.828125 65.703125 -54.828125 C 69.421875 -54.828125 72.804688 -53.878906 75.859375 -51.984375 C 78.921875 -50.085938 81.332031 -47.488281 83.09375 -44.1875 C 84.851562 -40.882812 85.734375 -37.15625 85.734375 -33 L 85.734375 0 L 69.8125 0 L 69.8125 -30.6875 C 69.8125 -33.570312 69.125 -35.785156 67.75 -37.328125 C 66.382812 -38.878906 64.539062 -39.65625 62.21875 -39.65625 C 59.820312 -39.65625 57.847656 -38.8125 56.296875 -37.125 C 54.753906 -35.4375 53.984375 -33.289062 53.984375 -30.6875 L 53.984375 0 L 38.0625 0 L 38.0625 -30.6875 C 38.0625 -33.570312 37.375 -35.785156 36 -37.328125 C 34.632812 -38.878906 32.789062 -39.65625 30.46875 -39.65625 C 28.082031 -39.65625 26.113281 -38.828125 24.5625 -37.171875 C 23.019531 -35.515625 22.25 -33.351562 22.25 -30.6875 L 22.25 0 Z M 6.328125 0 "/></g></g></g><g fill="#e4e2dd" fill-opacity="1"><g transform="translate(91.769149, 104.467078)"><g><path d="M 31.953125 1.046875 C 26.609375 1.046875 21.789062 -0.160156 17.5 -2.578125 C 13.21875 -5.003906 9.84375 -8.34375 7.375 -12.59375 C 4.914062 -16.851562 3.6875 -21.617188 3.6875 -26.890625 C 3.6875 -32.160156 4.914062 -36.921875 7.375 -41.171875 C 9.84375 -45.429688 13.21875 -48.769531 17.5 -51.1875 C 21.789062 -53.613281 26.609375 -54.828125 31.953125 -54.828125 C 37.015625 -54.828125 41.632812 -53.632812 45.8125 -51.25 C 50 -48.863281 53.285156 -45.578125 55.671875 -41.390625 C 58.066406 -37.203125 59.265625 -32.578125 59.265625 -27.515625 C 59.265625 -25.617188 59.085938 -23.863281 58.734375 -22.25 L 19.515625 -22.25 C 19.929688 -19.300781 21.296875 -16.820312 23.609375 -14.8125 C 25.929688 -12.8125 28.710938 -11.8125 31.953125 -11.8125 C 34.335938 -11.8125 36.375 -12.265625 38.0625 -13.171875 C 39.75 -14.085938 41.015625 -15.039062 41.859375 -16.03125 L 57.890625 -16.03125 C 57.191406 -13.632812 55.785156 -11.132812 53.671875 -8.53125 C 51.566406 -5.9375 48.664062 -3.691406 44.96875 -1.796875 C 41.28125 0.0976562 36.941406 1.046875 31.953125 1.046875 Z M 43.546875 -31.84375 C 43.128906 -34.800781 41.863281 -37.265625 39.75 -39.234375 C 37.644531 -41.203125 35.046875 -42.1875 31.953125 -42.1875 C 28.648438 -42.1875 25.90625 -41.203125 23.71875 -39.234375 C 21.539062 -37.265625 20.140625 -34.800781 19.515625 -31.84375 Z M 43.546875 -31.84375 "/></g></g></g><g fill="#e4e2dd" fill-opacity="1"><g transform="translate(154.713964, 104.467078)"><g><path d="M 41.859375 -53.78125 L 58.734375 -53.78125 L 35.859375 10.125 C 34.453125 13.988281 32.601562 16.78125 30.3125 18.5 C 28.03125 20.226562 24.535156 21.09375 19.828125 21.09375 L 6.21875 21.09375 L 6.21875 6.4375 L 17.078125 6.4375 C 18.835938 6.4375 20 5.695312 20.5625 4.21875 L 21.203125 2.53125 L -0.53125 -53.78125 L 16.34375 -53.78125 L 28.6875 -20.78125 L 30.796875 -20.78125 Z M 41.859375 -53.78125 "/></g></g></g></g></g><g transform="matrix(1, 0, 0, 1, 63, 204)"><g clip-path="url(#d302e4474d)"><g fill="#e4e2dd" fill-opacity="1"><g transform="translate(0.25139, 23.36006)"><g><path d="M 19.109375 -15.828125 L 19.109375 0 L 15.9375 0 L 15.9375 -7.3125 C 15.9375 -9.820312 15.953125 -11.628906 15.984375 -12.734375 C 15.554688 -10.898438 15.066406 -9.101562 14.515625 -7.34375 L 12.296875 0 L 8.859375 0 L 6.578125 -7.359375 C 6.003906 -9.304688 5.53125 -11.085938 5.15625 -12.703125 C 5.1875 -11.609375 5.203125 -9.8125 5.203125 -7.3125 L 5.203125 0 L 2.046875 0 L 2.046875 -15.828125 L 7.046875 -15.828125 L 10.625 -2.90625 L 14.203125 -15.828125 Z M 19.109375 -15.828125 "/></g></g></g><g fill="#e4e2dd" fill-opacity="1"><g transform="translate(20.822398, 23.36006)"><g><path d="M 13.46875 -2.5 L 13.46875 0 L 2.046875 0 L 2.046875 -15.828125 L 13.234375 -15.828125 L 13.234375 -13.34375 L 5.203125 -13.34375 L 5.203125 -9.171875 L 12.65625 -9.171875 L 12.65625 -6.671875 L 5.203125 -6.671875 L 5.203125 -2.5 Z M 13.46875 -2.5 "/></g></g></g><g fill="#e4e2dd" fill-opacity="1"><g transform="translate(34.949223, 23.36006)"><g><path d="M 9.109375 -6.125 L 9.109375 0 L 5.96875 0 L 5.96875 -6.125 L 0.359375 -15.828125 L 3.9375 -15.828125 L 7.640625 -8.921875 L 11.21875 -15.828125 L 14.703125 -15.828125 Z M 9.109375 -6.125 "/></g></g></g><g fill="#e4e2dd" fill-opacity="1"><g transform="translate(49.305369, 23.36006)"><g><path d="M 7.296875 -16.140625 C 9.097656 -16.140625 10.476562 -15.6875 11.4375 -14.78125 C 12.394531 -13.882812 12.960938 -12.679688 13.140625 -11.171875 L 9.90625 -11.171875 C 9.8125 -11.992188 9.535156 -12.632812 9.078125 -13.09375 C 8.617188 -13.550781 7.984375 -13.78125 7.171875 -13.78125 C 6.515625 -13.78125 5.976562 -13.617188 5.5625 -13.296875 C 5.15625 -12.984375 4.953125 -12.519531 4.953125 -11.90625 C 4.953125 -11.226562 5.203125 -10.695312 5.703125 -10.3125 C 6.203125 -9.9375 7.078125 -9.601562 8.328125 -9.3125 C 10.054688 -8.914062 11.328125 -8.3125 12.140625 -7.5 C 12.960938 -6.6875 13.375 -5.640625 13.375 -4.359375 C 13.375 -2.921875 12.804688 -1.78125 11.671875 -0.9375 C 10.546875 -0.09375 9.164062 0.328125 7.53125 0.328125 C 5.601562 0.328125 4.0625 -0.09375 2.90625 -0.9375 C 1.757812 -1.789062 1.113281 -3.035156 0.96875 -4.671875 L 4.203125 -4.671875 C 4.367188 -3.835938 4.75 -3.191406 5.34375 -2.734375 C 5.9375 -2.273438 6.648438 -2.046875 7.484375 -2.046875 C 8.210938 -2.046875 8.820312 -2.226562 9.3125 -2.59375 C 9.8125 -2.957031 10.0625 -3.4375 10.0625 -4.03125 C 10.0625 -4.707031 9.820312 -5.25 9.34375 -5.65625 C 8.863281 -6.070312 8.050781 -6.421875 6.90625 -6.703125 C 5.132812 -7.128906 3.8125 -7.695312 2.9375 -8.40625 C 2.0625 -9.113281 1.625 -10.148438 1.625 -11.515625 C 1.625 -12.921875 2.175781 -14.039062 3.28125 -14.875 C 4.382812 -15.71875 5.722656 -16.140625 7.296875 -16.140625 Z M 7.296875 -16.140625 "/></g></g></g><g fill="#e4e2dd" fill-opacity="1"><g transform="translate(63.248714, 23.36006)"><g><path d="M 9.8125 -15.71875 C 11.082031 -15.570312 12.109375 -15.082031 12.890625 -14.25 C 13.679688 -13.414062 14.078125 -12.296875 14.078125 -10.890625 C 14.078125 -9.503906 13.671875 -8.394531 12.859375 -7.5625 C 12.054688 -6.726562 11.039062 -6.234375 9.8125 -6.078125 C 9.15625 -6.003906 8.394531 -5.96875 7.53125 -5.96875 L 5.203125 -5.96875 L 5.203125 0 L 2.046875 0 L 2.046875 -15.828125 L 7.53125 -15.828125 C 8.414062 -15.828125 9.175781 -15.789062 9.8125 -15.71875 Z M 8.875 -8.53125 C 10.125 -8.71875 10.75 -9.503906 10.75 -10.890625 C 10.75 -12.285156 10.125 -13.078125 8.875 -13.265625 C 8.519531 -13.304688 8.054688 -13.328125 7.484375 -13.328125 L 5.203125 -13.328125 L 5.203125 -8.46875 L 7.484375 -8.46875 C 8.054688 -8.46875 8.519531 -8.488281 8.875 -8.53125 Z M 8.875 -8.53125 "/></g></g></g><g fill="#e4e2dd" fill-opacity="1"><g transform="translate(77.536069, 23.36006)"><g><path d="M 10.625 -4.765625 L 5.296875 -4.765625 L 3.71875 0 L 0.34375 0 L 6.0625 -15.828125 L 10.03125 -15.828125 L 15.625 0 L 12.1875 0 Z M 7.984375 -13.125 L 6.09375 -7.265625 L 9.8125 -7.265625 Z M 7.984375 -13.125 "/></g></g></g><g fill="#e4e2dd" fill-opacity="1"><g transform="translate(93.038875, 23.36006)"><g><path d="M 8.828125 -16.140625 C 10.890625 -16.140625 12.5 -15.640625 13.65625 -14.640625 C 14.820312 -13.640625 15.492188 -12.320312 15.671875 -10.6875 L 15.6875 -10.453125 L 12.53125 -10.453125 L 12.484375 -10.6875 C 12.066406 -12.75 10.832031 -13.78125 8.78125 -13.78125 C 7.5 -13.78125 6.46875 -13.265625 5.6875 -12.234375 C 4.90625 -11.203125 4.515625 -9.789062 4.515625 -8 C 4.515625 -6.09375 4.90625 -4.625 5.6875 -3.59375 C 6.46875 -2.5625 7.484375 -2.046875 8.734375 -2.046875 C 9.742188 -2.046875 10.554688 -2.328125 11.171875 -2.890625 C 11.785156 -3.453125 12.195312 -4.238281 12.40625 -5.25 L 12.453125 -5.484375 L 15.59375 -5.484375 L 15.578125 -5.25 C 15.410156 -3.539062 14.707031 -2.179688 13.46875 -1.171875 C 12.226562 -0.171875 10.609375 0.328125 8.609375 0.328125 C 6.367188 0.328125 4.566406 -0.40625 3.203125 -1.875 C 1.847656 -3.34375 1.171875 -5.328125 1.171875 -7.828125 C 1.171875 -10.359375 1.890625 -12.375 3.328125 -13.875 C 4.765625 -15.382812 6.597656 -16.140625 8.828125 -16.140625 Z M 8.828125 -16.140625 "/></g></g></g><g fill="#e4e2dd" fill-opacity="1"><g transform="translate(109.504862, 23.36006)"><g><path d="M 13.46875 -2.5 L 13.46875 0 L 2.046875 0 L 2.046875 -15.828125 L 13.234375 -15.828125 L 13.234375 -13.34375 L 5.203125 -13.34375 L 5.203125 -9.171875 L 12.65625 -9.171875 L 12.65625 -6.671875 L 5.203125 -6.671875 L 5.203125 -2.5 Z M 13.46875 -2.5 "/></g></g></g><g fill="#e4e2dd" fill-opacity="1"><g transform="translate(123.631687, 23.36006)"><g><path d="M 1.421875 -2.984375 C 1.773438 -3.347656 2.234375 -3.53125 2.796875 -3.53125 C 3.359375 -3.53125 3.816406 -3.347656 4.171875 -2.984375 C 4.535156 -2.628906 4.71875 -2.164062 4.71875 -1.59375 C 4.71875 -1.03125 4.535156 -0.566406 4.171875 -0.203125 C 3.816406 0.148438 3.359375 0.328125 2.796875 0.328125 C 2.234375 0.328125 1.773438 0.148438 1.421875 -0.203125 C 1.066406 -0.566406 0.890625 -1.03125 0.890625 -1.59375 C 0.890625 -2.164062 1.066406 -2.628906 1.421875 -2.984375 Z M 1.421875 -2.984375 "/></g></g></g><g fill="#e4e2dd" fill-opacity="1"><g transform="translate(129.250299, 23.36006)"><g><path d="M 9.515625 -15.734375 C 11.472656 -15.503906 13.046875 -14.753906 14.234375 -13.484375 C 15.429688 -12.210938 16.03125 -10.425781 16.03125 -8.125 C 16.03125 -5.800781 15.414062 -3.9375 14.1875 -2.53125 C 12.96875 -1.132812 11.394531 -0.320312 9.46875 -0.09375 C 8.9375 -0.03125 8.265625 0 7.453125 0 L 2.046875 0 L 2.046875 -15.828125 L 7.5 -15.828125 C 8.3125 -15.828125 8.984375 -15.796875 9.515625 -15.734375 Z M 8.765625 -2.5625 C 9.972656 -2.71875 10.925781 -3.273438 11.625 -4.234375 C 12.332031 -5.203125 12.6875 -6.484375 12.6875 -8.078125 C 12.6875 -9.609375 12.34375 -10.816406 11.65625 -11.703125 C 10.96875 -12.585938 10.023438 -13.109375 8.828125 -13.265625 C 8.359375 -13.316406 7.796875 -13.34375 7.140625 -13.34375 L 5.203125 -13.34375 L 5.203125 -2.5 L 7.09375 -2.5 C 7.863281 -2.5 8.421875 -2.519531 8.765625 -2.5625 Z M 8.765625 -2.5625 "/></g></g></g><g fill="#e4e2dd" fill-opacity="1"><g transform="translate(146.014426, 23.36006)"><g><path d="M 13.46875 -2.5 L 13.46875 0 L 2.046875 0 L 2.046875 -15.828125 L 13.234375 -15.828125 L 13.234375 -13.34375 L 5.203125 -13.34375 L 5.203125 -9.171875 L 12.65625 -9.171875 L 12.65625 -6.671875 L 5.203125 -6.671875 L 5.203125 -2.5 Z M 13.46875 -2.5 "/></g></g></g><g fill="#e4e2dd" fill-opacity="1"><g transform="translate(160.141251, 23.36006)"><g><path d="M 10.296875 0 L 6.328125 0 L 0.734375 -15.828125 L 4.171875 -15.828125 L 8.375 -2.4375 L 12.640625 -15.828125 L 16.015625 -15.828125 Z M 10.296875 0 "/></g></g></g></g></g></svg>