<svg xmlns="http://www.w3.org/2000/svg" xmlns:xlink="http://www.w3.org/1999/xlink" width="460" zoomAndPan="magnify" viewBox="0 0 345 89.999999" height="120" preserveAspectRatio="xMidYMid meet" version="1.0"><defs><g/><clipPath id="f6c8cc2ff7"><path d="M 4.414062 0 L 330.664062 0 L 330.664062 89.894531 L 4.414062 89.894531 Z M 4.414062 0 " clip-rule="nonzero"/></clipPath><clipPath id="41df984dcb"><path d="M 13.230469 8.449219 L 167.617188 8.449219 L 167.617188 81.449219 L 13.230469 81.449219 Z M 13.230469 8.449219 " clip-rule="nonzero"/></clipPath><clipPath id="91c8d39bf6"><path d="M 0.230469 0.449219 L 154.617188 0.449219 L 154.617188 73.449219 L 0.230469 73.449219 Z M 0.230469 0.449219 " clip-rule="nonzero"/></clipPath><clipPath id="6bf80e2f87"><rect x="0" width="155" y="0" height="74"/></clipPath></defs><g clip-path="url(#f6c8cc2ff7)"><path stroke-linecap="butt" transform="matrix(0.75, 0, 0, 0.75, 4.413976, 0.000377157)" fill="none" stroke-linejoin="miter" d="M 0.000115862 -0.000502876 L 435.203264 -0.000502876 L 435.203264 119.858878 L 0.000115862 119.858878 Z M 0.000115862 -0.000502876 " stroke="#000000" stroke-width="6" stroke-opacity="1" stroke-miterlimit="4"/></g><g clip-path="url(#41df984dcb)"><g transform="matrix(1, 0, 0, 1, 13, 8)"><g clip-path="url(#6bf80e2f87)"><g clip-path="url(#91c8d39bf6)"><path fill="#000000" d="M 0.230469 0.449219 L 154.503906 0.449219 L 154.503906 73.449219 L 0.230469 73.449219 Z M 0.230469 0.449219 " fill-opacity="1" fill-rule="nonzero"/></g></g></g></g><g fill="#ffffff" fill-opacity="1"><g transform="translate(46.065951, 60.166309)"><g><path d="M 2.078125 -28.015625 L 11.375 -28.015625 L 16.859375 -12.125 L 16.96875 -12.125 L 22.453125 -28.015625 L 31.75 -28.015625 L 31.75 0 L 25.625 0 L 25.625 -19.21875 L 25.453125 -19.21875 L 18.890625 0 L 14.9375 0 L 8.359375 -19.21875 L 8.203125 -19.21875 L 8.203125 0 L 2.078125 0 Z M 2.078125 -28.015625 "/></g></g></g><g fill="#ffffff" fill-opacity="1"><g transform="translate(82.935127, 60.166309)"><g><path d="M 8.359375 -22.578125 L 8.359375 -16.609375 L 19.015625 -16.609375 L 19.015625 -11.765625 L 8.359375 -11.765625 L 8.359375 -5.4375 L 21.015625 -5.4375 L 21.015625 0 L 2.078125 0 L 2.078125 -28.015625 L 21.015625 -28.015625 L 21.015625 -22.578125 Z M 8.359375 -22.578125 "/></g></g></g><g fill="#ffffff" fill-opacity="1"><g transform="translate(108.635581, 60.166309)"><g><path d="M 10.09375 0 L 10.09375 -9.5625 L 0.875 -28.015625 L 7.359375 -28.015625 L 13.09375 -15.8125 L 13.296875 -15.8125 L 19.015625 -28.015625 L 25.5 -28.015625 L 16.296875 -9.5625 L 16.296875 0 Z M 10.09375 0 "/></g></g></g><g fill="#000000" fill-opacity="1"><g transform="translate(186.871823, 60.166309)"><g><path d="M 12.453125 0.359375 C 10.210938 0.359375 8.269531 -0.078125 6.625 -0.953125 C 4.976562 -1.835938 3.734375 -2.992188 2.890625 -4.421875 C 2.054688 -5.847656 1.640625 -7.335938 1.640625 -8.890625 L 1.640625 -9.203125 L 8.484375 -9.203125 L 8.484375 -8.921875 C 8.484375 -7.960938 8.828125 -7.082031 9.515625 -6.28125 C 10.210938 -5.476562 11.226562 -5.078125 12.5625 -5.078125 C 13.71875 -5.078125 14.640625 -5.367188 15.328125 -5.953125 C 16.023438 -6.546875 16.375 -7.320312 16.375 -8.28125 C 16.375 -9.132812 16.066406 -9.820312 15.453125 -10.34375 C 14.835938 -10.863281 14.085938 -11.21875 13.203125 -11.40625 L 10 -12.046875 C 8.132812 -12.472656 6.390625 -13.273438 4.765625 -14.453125 C 3.140625 -15.628906 2.328125 -17.550781 2.328125 -20.21875 C 2.328125 -21.945312 2.742188 -23.4375 3.578125 -24.6875 C 4.421875 -25.945312 5.585938 -26.910156 7.078125 -27.578125 C 8.578125 -28.242188 10.273438 -28.578125 12.171875 -28.578125 C 14.328125 -28.578125 16.191406 -28.160156 17.765625 -27.328125 C 19.347656 -26.503906 20.535156 -25.429688 21.328125 -24.109375 C 22.128906 -22.796875 22.53125 -21.414062 22.53125 -19.96875 L 22.53125 -19.78125 L 15.6875 -19.78125 L 15.6875 -19.890625 C 15.6875 -20.742188 15.382812 -21.535156 14.78125 -22.265625 C 14.1875 -23.003906 13.234375 -23.375 11.921875 -23.375 C 10.910156 -23.375 10.101562 -23.09375 9.5 -22.53125 C 8.90625 -21.976562 8.609375 -21.242188 8.609375 -20.328125 C 8.609375 -19.453125 8.941406 -18.757812 9.609375 -18.25 C 10.273438 -17.75 11.078125 -17.40625 12.015625 -17.21875 L 15.25 -16.5 C 17.363281 -16.039062 19.164062 -15.179688 20.65625 -13.921875 C 22.144531 -12.671875 22.890625 -10.847656 22.890625 -8.453125 C 22.890625 -6.679688 22.4375 -5.128906 21.53125 -3.796875 C 20.625 -2.460938 19.375 -1.4375 17.78125 -0.71875 C 16.195312 0 14.421875 0.359375 12.453125 0.359375 Z M 12.453125 0.359375 "/></g></g></g><g fill="#000000" fill-opacity="1"><g transform="translate(211.090736, 60.166309)"><g><path d="M 12.734375 -28.015625 C 14.941406 -28.015625 16.8125 -27.5625 18.34375 -26.65625 C 19.882812 -25.75 21.023438 -24.546875 21.765625 -23.046875 C 22.515625 -21.554688 22.890625 -19.945312 22.890625 -18.21875 C 22.890625 -16.507812 22.523438 -14.925781 21.796875 -13.46875 C 21.066406 -12.007812 19.929688 -10.835938 18.390625 -9.953125 C 16.859375 -9.078125 14.972656 -8.640625 12.734375 -8.640625 L 8.203125 -8.640625 L 8.203125 0 L 2.078125 0 L 2.078125 -28.015625 Z M 11.734375 -13.765625 C 13.171875 -13.765625 14.382812 -14.101562 15.375 -14.78125 C 16.363281 -15.46875 16.859375 -16.613281 16.859375 -18.21875 C 16.859375 -19.8125 16.367188 -20.925781 15.390625 -21.5625 C 14.421875 -22.207031 13.203125 -22.53125 11.734375 -22.53125 L 8.203125 -22.53125 L 8.203125 -13.765625 Z M 11.734375 -13.765625 "/></g></g></g><g fill="#000000" fill-opacity="1"><g transform="translate(234.549051, 60.166309)"><g><path d="M 18.015625 -6.484375 L 9.046875 -6.484375 L 7.046875 0 L 0.71875 0 L 10.6875 -28.015625 L 16.5 -28.015625 L 26.375 0 L 20.0625 0 Z M 16.5 -11.25 L 13.609375 -20.296875 L 13.375 -20.296875 L 10.5625 -11.25 Z M 16.5 -11.25 "/></g></g></g><g fill="#000000" fill-opacity="1"><g transform="translate(261.490078, 60.166309)"><g><path d="M 14.375 0.359375 C 11.675781 0.359375 9.359375 -0.300781 7.421875 -1.625 C 5.492188 -2.945312 4.023438 -4.710938 3.015625 -6.921875 C 2.015625 -9.140625 1.515625 -11.539062 1.515625 -14.125 C 1.515625 -16.71875 2.015625 -19.113281 3.015625 -21.3125 C 4.023438 -23.519531 5.492188 -25.28125 7.421875 -26.59375 C 9.359375 -27.914062 11.675781 -28.578125 14.375 -28.578125 C 17.65625 -28.578125 20.335938 -27.613281 22.421875 -25.6875 C 24.503906 -23.769531 25.847656 -21.289062 26.453125 -18.25 L 20.421875 -18.25 C 20.097656 -19.632812 19.40625 -20.796875 18.34375 -21.734375 C 17.289062 -22.671875 15.992188 -23.140625 14.453125 -23.140625 C 12.316406 -23.140625 10.707031 -22.304688 9.625 -20.640625 C 8.539062 -18.972656 8 -16.800781 8 -14.125 C 8 -11.40625 8.539062 -9.21875 9.625 -7.5625 C 10.707031 -5.90625 12.316406 -5.078125 14.453125 -5.078125 C 15.972656 -5.078125 17.242188 -5.53125 18.265625 -6.4375 C 19.296875 -7.351562 19.984375 -8.4375 20.328125 -9.6875 L 26.296875 -9.6875 C 25.710938 -6.75 24.382812 -4.335938 22.3125 -2.453125 C 20.25 -0.578125 17.601562 0.359375 14.375 0.359375 Z M 14.375 0.359375 "/></g></g></g><g fill="#000000" fill-opacity="1"><g transform="translate(289.311797, 60.166309)"><g><path d="M 8.359375 -22.578125 L 8.359375 -16.609375 L 19.015625 -16.609375 L 19.015625 -11.765625 L 8.359375 -11.765625 L 8.359375 -5.4375 L 21.015625 -5.4375 L 21.015625 0 L 2.078125 0 L 2.078125 -28.015625 L 21.015625 -28.015625 L 21.015625 -22.578125 Z M 8.359375 -22.578125 "/></g></g></g></svg>